inDegrees=yes
name=ik_S47_A12_T02
DataType=double
version=3
OpenSimVersion=4.3-2021-08-27-4bc7ad9
endheader
time	pelvis_tilt	pelvis_list	pelvis_rotation	pelvis_tx	pelvis_ty	pelvis_tz	hip_flexion_r	hip_adduction_r	hip_rotation_r	knee_angle_r	knee_angle_r_beta	ankle_angle_r	subtalar_angle_r	mtp_angle_r	hip_flexion_l	hip_adduction_l	hip_rotation_l	knee_angle_l	knee_angle_l_beta	ankle_angle_l	subtalar_angle_l	mtp_angle_l	lumbar_extension	lumbar_bending	lumbar_rotation	arm_flex_r	arm_add_r	arm_rot_r	elbow_flex_r	pro_sup_r	wrist_flex_r	wrist_dev_r	arm_flex_l	arm_add_l	arm_rot_l	elbow_flex_l	pro_sup_l	wrist_flex_l	wrist_dev_l
12.35999999999983	-2.109306442607714	1.695001409351557	53.92840689242333	0	0.9399999999999999	0	38.50150311484023	-9.904175078899735	-9.663094830968548	45.25835515452494	0.7899073114834072	0	0	0	38.50150311484023	-9.904175078899735	-9.663094830968548	45.25835515452494	0.7899073114834072	0	0	0	-0.1824015000633495	3.062197023590052	-12.06775058184305	18.53076882106861	-11.6827079211497	-0.4762889188522381	7.081282485401117	115.8789705769972	0	0	55.24158319317407	-28.91953759586096	6.288849932507185	11.33712500599844	70.4288131583689	0	0
12.37999999999982	-2.036855056681633	1.698394589602797	54.320982236688	0	0.9399999999999999	0	38.50495064714816	-9.904351079310649	-9.6634919949656	45.26187084466347	0.7899686718518044	0	0	0	38.50495064714816	-9.904351079310649	-9.6634919949656	45.26187084466347	0.7899686718518044	0	0	0	-0.1418738525108706	3.020867876428444	-12.11795670518692	18.07475642892354	-11.77174530892809	-0.5922067840251072	7.137581000270062	115.9042661911928	0	0	55.22510321169883	-28.47467267684622	6.477824329711602	6.572477263799087	69.65851485836866	0	0
12.39999999999982	-1.962925661915996	1.643759799892213	54.89299675246817	0	0.9399999999999999	0	38.60544067183346	-9.907826341259071	-9.672595832868334	45.39548560974841	0.7923006894318154	0	0	0	38.60544067183346	-9.907826341259071	-9.672595832868334	45.39548560974841	0.7923006894318154	0	0	0	-0.1338740455903177	2.92900095669103	-12.24164458968132	17.94847632605303	-11.73694194579729	-1.112729800817707	7.017406985225366	116.2883204017648	0	0	51.00358541801795	-27.76377855647009	3.345935823277213	9.991822909252184	71.2393480966671	0	0
12.41999999999982	-1.824309093090483	1.542518030177467	55.62440451644272	0	0.9399999999999999	0	38.68048811546197	-9.910435030660347	-9.679420818267671	45.49397195360808	0.794019600400418	0	0	0	38.68048811546197	-9.910435030660347	-9.679420818267671	45.49397195360808	0.794019600400418	0	0	0	-0.1441410615208434	2.776256615028029	-12.35310764858173	17.51302906702466	-11.63019928324946	-1.527656054694829	7.083563704467124	116.0568824529215	0	0	43.88185431912528	-26.45840636762051	-1.75320570049183	5.460507000326663	72.53830096134887	0	0
12.43999999999982	-1.749908297643278	1.512556727491958	55.99293737262511	0	0.9399999999999999	0	38.71741761998925	-9.911687874587388	-9.68273005742944	45.54295836755424	0.7948745746125233	0	0	0	38.71741761998925	-9.911687874587388	-9.68273005742944	45.54295836755424	0.7948745746125233	0	0	0	-0.1293673566396988	2.700924184800731	-12.36514511357024	17.13494418196895	-11.6356067049947	-1.659580967208053	7.125201655957189	116.0986681068139	0	0	40.22990619301353	-25.39490397137896	-4.609196037181896	3.408394623903406	74.29287475246589	0	0
12.45999999999982	-1.536756407791668	1.304460038887322	56.93942875824882	0	0.9399999999999999	0	38.74983133568899	-9.912788072513198	-9.685635134164546	45.5858817151294	0.7956237283536877	0	0	0	38.74983133568899	-9.912788072513198	-9.685635134164546	45.5858817151294	0.7956237283536877	0	0	0	-0.1872907251679679	2.406270335349193	-11.90609810547509	16.63491288737741	-11.51389510578201	-2.93868535799873	7.178394881404293	116.2336073779323	0	0	37.40324938348053	-23.73074044973244	-6.311684892571375	1.278840706953892	75.79965682550701	0	0
12.47999999999982	-1.530274150187154	1.298875013429141	57.04648585843123	0	0.9399999999999999	0	38.78041646789753	-9.913793769358152	-9.688329672488187	45.62670026614957	0.796336146464883	0	0	0	38.78041646789753	-9.913793769358152	-9.688329672488187	45.62670026614957	0.796336146464883	0	0	0	-0.187231554211222	2.407342589885209	-12.00617889952655	16.44710764943499	-11.55366123431457	-2.674177357024074	7.296038152298545	116.4242410568142	0	0	33.97380709584355	-22.46661199985309	-8.589778298478288	-0.58624399030143	75.91368135709715	0	0
12.49999999999982	-1.449428185022057	0.9583339296792115	57.67731228377639	0	0.9399999999999999	0	38.8142405514344	-9.91488762564909	-9.691280245683807	45.67221264399709	0.797130487308734	0	0	0	38.8142405514344	-9.91488762564909	-9.691280245683807	45.67221264399709	0.797130487308734	0	0	0	-0.4308392088921012	2.154445530366081	-11.73555866170151	16.37019990184	-11.35914790580353	-3.157343616929484	7.402698604078299	116.2716633015733	0	0	31.09291364158519	-21.24962403471154	-9.067325811674156	-1.515857503616154	75.66983031786941	0	0
12.51999999999982	-1.351800409374627	0.904874176970945	57.92510388935757	0	0.9399999999999999	0	38.866044651656	-9.916564027518907	-9.695807738775997	45.74122187436531	0.7983349255929266	0	0	0	38.866044651656	-9.916564027518907	-9.695807738775997	45.74122187436531	0.7983349255929266	0	0	0	-0.418008863111121	2.033281369025592	-11.61076620722432	16.14802532228738	-11.29415304371424	-3.301419794719313	7.532784555406701	116.3529213461063	0	0	27.39071678338362	-19.67816331078652	-9.309026264303695	-1.841671817917333	74.96153474774492	0	0
12.53999999999982	-1.333648943463611	0.8551902148273955	57.88758421733174	0	0.9399999999999999	0	38.96554517285721	-9.919675453543285	-9.704338188483355	45.87522414705786	0.8006737064565669	0	0	0	38.96554517285721	-9.919675453543285	-9.704338188483355	45.87522414705786	0.8006737064565669	0	0	0	-0.4471907792976875	1.973573484640114	-11.41194387861622	16.1042374509072	-11.27907221730996	-3.181271244450488	7.698054188729265	116.5264566804599	0	0	20.27837994736179	-16.00769959052226	-9.342904583911098	-1.375332827541817	73.27276159354138	0	0
12.55999999999982	-1.29250860699574	0.6976761476453832	58.12043667669344	0	0.9399999999999999	0	38.96827862834178	-9.919801673101324	-9.704636289859129	45.87802813759922	0.8007226453237084	0	0	0	38.96827862834178	-9.919801673101324	-9.704636289859129	45.87802813759922	0.8007226453237084	0	0	0	-0.5598601663498647	1.856563751605488	-11.32153759184846	16.17474715197368	-11.14390827599381	-3.22048485167102	7.738629450847305	116.3653569091049	0	0	20.531408748647	-15.76475215151327	-8.941429427733308	-3.886190249785197	73.9714776547775	0	0
12.57999999999982	-1.252045228840715	0.5693114052976045	58.39123728987031	0	0.9399999999999999	0	39.02445988720031	-9.921561362007223	-9.70945824593665	45.95302887921442	0.8020316552063314	0	0	0	39.02445988720031	-9.921561362007223	-9.70945824593665	45.95302887921442	0.8020316552063314	0	0	0	-0.6403557683133329	1.750080628712414	-11.22106547725017	16.21572767193358	-11.00001485258361	-3.666460304776763	7.867092749908247	116.569566388028	0	0	17.61035718363999	-14.13520751182899	-9.758571320082178	-3.256696340355326	75.01406249210545	0	0
12.59999999999982	-1.137775890893448	0.5570582898526671	58.96351279480275	0	0.9399999999999999	0	39.08184000713769	-9.923354348492442	-9.714369686725057	46.02995981786278	0.8033743533823949	0	0	0	39.08184000713769	-9.923354348492442	-9.714369686725057	46.02995981786278	0.8033743533823949	0	0	0	-0.5854761433120631	1.646901802487188	-11.34359791019469	15.99816598937769	-10.97086114741585	-3.796339015767445	7.817141447650903	116.3208394106535	0	0	15.11346080918596	-13.15290821567006	-11.81799947709668	-0.8356075308966655	76.85095898685269	0	0
12.61999999999982	-1.07715628716397	0.5766002982722388	59.26947040155653	0	0.9399999999999999	0	39.10909659948772	-9.924234720291265	-9.716747391674401	46.06582670657694	0.8040003486829034	0	0	0	39.10909659948772	-9.924234720291265	-9.716747391674401	46.06582670657694	0.8040003486829034	0	0	0	-0.5329445358020199	1.60363481618683	-11.38326338736885	15.85181787190858	-11.00270135023278	-3.705333161873692	7.860448591958836	116.2464792307578	0	0	13.33332576368366	-12.05501406302309	-14.60892706701229	-1.358832325389513	80.18888914049731	0	0
